<?xml version="1.0" encoding="UTF-8" standalone="no"?><!DOCTYPE svg PUBLIC "-//W3C//DTD SVG 1.1//EN" "http://www.w3.org/Graphics/SVG/1.1/DTD/svg11.dtd"><svg width="100%" height="100%" viewBox="0 0 14 15" version="1.1" xmlns="http://www.w3.org/2000/svg" xmlns:xlink="http://www.w3.org/1999/xlink" xml:space="preserve" xmlns:serif="http://www.serif.com/" style="fill-rule:evenodd;clip-rule:evenodd;stroke-linejoin:round;stroke-miterlimit:1.41421;"><circle cx="3.462" cy="8.077" r="2.077" style="fill:#fff;"/><path d="M3.462,10.846c-1.285,0.001 -2.511,0.546 -3.373,1.499c-0.057,0.064 -0.089,0.146 -0.089,0.232l0,1.731c0,0.379 0.313,0.692 0.692,0.692l5.539,0c0.38,0 0.692,-0.313 0.692,-0.692l0,-1.731c0,-0.086 -0.032,-0.168 -0.089,-0.232c-0.862,-0.953 -2.088,-1.498 -3.372,-1.499Z" style="fill:#fff;fill-rule:nonzero;"/><path d="M13,0l-5,0c-0.549,0 -1,0.451 -1,1l0,3c0,0.549 0.451,1 1,1l0,1.5c0,0.215 0.138,0.406 0.342,0.474c0.051,0.017 0.104,0.026 0.158,0.026c0.157,0 0.306,-0.074 0.4,-0.2l1.35,-1.8l2.75,0c0.549,0 1,-0.451 1,-1l0,-3c0,-0.549 -0.451,-1 -1,-1Z" style="fill:#fff;fill-rule:nonzero;"/></svg>